<svg xmlns="http://www.w3.org/2000/svg" xmlns:xlink="http://www.w3.org/1999/xlink" version="1.1" id="Слой_1" x="0px" y="0px" style="enable-background:new 0 0 1000 1000;" xml:space="preserve" viewBox="256.2 390.6 570.6 161.8">
<style type="text/css">
	.st0{fill:#BE1622;}
</style>
<g>
	<path d="M432.4,443.6h-5.5v14h-10.7v-36.9h10.7V435h5.8l10-14.3h11.4l-12.9,17.7l13.8,19.2h-12.6L432.4,443.6z"/>
	<path d="M486.9,424.2c3.1,2.7,4.6,6.8,4.6,12.3v21h-10v-4.6c-2,3.4-5.8,5.1-11.2,5.1c-2.8,0-5.3-0.5-7.4-1.4s-3.7-2.3-4.8-4   c-1.1-1.7-1.6-3.6-1.6-5.8c0-3.4,1.3-6.1,3.9-8.1c2.6-2,6.6-2.9,12-2.9h8.5c0-2.3-0.7-4.1-2.1-5.4c-1.4-1.3-3.5-1.9-6.4-1.9   c-2,0-3.9,0.3-5.8,0.9c-1.9,0.6-3.5,1.5-4.8,2.5l-3.8-7.5c2-1.4,4.4-2.5,7.2-3.3c2.8-0.8,5.7-1.2,8.7-1.2   C479.4,420.1,483.8,421.5,486.9,424.2z M477.8,449.6c1.4-0.8,2.4-2.1,3-3.7v-3.8h-7.3c-4.4,0-6.6,1.4-6.6,4.3   c0,1.4,0.5,2.5,1.6,3.3c1.1,0.8,2.5,1.2,4.4,1.2C474.7,450.9,476.4,450.5,477.8,449.6z"/>
	<path d="M531.8,429.4h-12.5v28.1h-10.6v-28.1h-12.5v-8.8h35.6V429.4z"/>
	<path d="M564.9,424.2c3.1,2.7,4.6,6.8,4.6,12.3v21h-10v-4.6c-2,3.4-5.8,5.1-11.2,5.1c-2.8,0-5.3-0.5-7.4-1.4c-2.1-1-3.7-2.3-4.8-4   c-1.1-1.7-1.6-3.6-1.6-5.8c0-3.4,1.3-6.1,3.9-8.1c2.6-2,6.6-2.9,12-2.9h8.5c0-2.3-0.7-4.1-2.1-5.4c-1.4-1.3-3.5-1.9-6.4-1.9   c-2,0-3.9,0.3-5.8,0.9c-1.9,0.6-3.5,1.5-4.8,2.5l-3.8-7.5c2-1.4,4.4-2.5,7.2-3.3c2.8-0.8,5.7-1.2,8.7-1.2   C557.5,420.1,561.9,421.5,564.9,424.2z M555.8,449.6c1.4-0.8,2.4-2.1,3-3.7v-3.8h-7.3c-4.4,0-6.6,1.4-6.6,4.3   c0,1.4,0.5,2.5,1.6,3.3c1.1,0.8,2.5,1.2,4.4,1.2C552.8,450.9,554.4,450.5,555.8,449.6z"/>
	<path d="M614.2,420.7v36.9h-10.7v-28.1h-11.6l-0.3,6.5c-0.2,4.8-0.6,8.9-1.4,12.1c-0.7,3.2-1.9,5.7-3.6,7.5   c-1.6,1.8-3.9,2.7-6.9,2.7c-1.6,0-3.4-0.3-5.6-0.8l0.5-8.8c0.7,0.1,1.3,0.1,1.6,0.1c1.6,0,2.8-0.6,3.6-1.7c0.8-1.2,1.3-2.6,1.6-4.5   c0.3-1.8,0.5-4.2,0.6-7.2l0.5-14.8H614.2z"/>
	<path d="M631.3,455.6c-3.1-1.6-5.5-3.9-7.2-6.7c-1.7-2.9-2.6-6.1-2.6-9.8c0-3.7,0.9-6.9,2.6-9.8c1.7-2.9,4.1-5.1,7.2-6.7   c3.1-1.6,6.6-2.4,10.4-2.4s7.4,0.8,10.4,2.4c3.1,1.6,5.5,3.9,7.2,6.7c1.7,2.9,2.6,6.1,2.6,9.8c0,3.7-0.9,6.9-2.6,9.8   c-1.7,2.9-4.1,5.1-7.2,6.7c-3.1,1.6-6.5,2.4-10.4,2.4S634.4,457.3,631.3,455.6z M648.5,446.5c1.8-1.9,2.6-4.3,2.6-7.4   c0-3.1-0.9-5.6-2.6-7.4c-1.8-1.9-4-2.8-6.7-2.8c-2.7,0-5,0.9-6.8,2.8c-1.8,1.8-2.7,4.3-2.7,7.4c0,3.1,0.9,5.6,2.7,7.4   c1.8,1.8,4,2.8,6.8,2.8C644.5,449.3,646.7,448.4,648.5,446.5z"/>
	<path d="M698.8,429.4h-18.9v28.1h-10.6v-36.9h29.5V429.4z"/>
	<path d="M422.9,504.2c-3.1-1.6-5.5-3.9-7.2-6.7c-1.7-2.9-2.6-6.1-2.6-9.8c0-3.7,0.9-6.9,2.6-9.8c1.7-2.9,4.1-5.1,7.2-6.7   c3.1-1.6,6.6-2.4,10.4-2.4c3.9,0,7.4,0.8,10.4,2.4c3.1,1.6,5.5,3.9,7.2,6.7c1.7,2.9,2.6,6.1,2.6,9.8c0,3.7-0.9,6.9-2.6,9.8   c-1.7,2.9-4.1,5.1-7.2,6.7c-3.1,1.6-6.5,2.4-10.4,2.4C429.5,506.6,426,505.8,422.9,504.2z M440.1,495.1c1.8-1.9,2.6-4.3,2.6-7.4   c0-3.1-0.9-5.6-2.6-7.4c-1.8-1.9-4-2.8-6.7-2.8c-2.7,0-5,0.9-6.8,2.8c-1.8,1.8-2.7,4.3-2.7,7.4c0,3.1,0.9,5.6,2.7,7.4   c1.8,1.8,4,2.8,6.8,2.8C436.1,497.9,438.4,496.9,440.1,495.1z"/>
	<path d="M490.5,478h-12.5v28.1h-10.6V478H455v-8.8h35.6V478z"/>
	<path d="M529.4,469.2v36.9h-10.7v-13.7c-3.1,1.6-6.5,2.3-10.3,2.3c-5,0-8.7-1.1-11.3-3.4c-2.5-2.3-3.8-5.8-3.8-10.5v-11.6H504v10.9   c0,2.2,0.6,3.9,1.7,4.9c1.2,1,2.8,1.5,5,1.5c2.8,0,5.4-0.6,7.9-1.8v-15.5H529.4z"/>
	<path d="M575.3,490.7h-27.9c0.5,2.3,1.7,4.1,3.6,5.4c1.9,1.3,4.2,2,7,2c1.9,0,3.6-0.3,5.1-0.9c1.5-0.6,2.9-1.5,4.1-2.7l5.7,6.2   c-3.5,4-8.5,6-15.2,6c-4.2,0-7.8-0.8-11-2.4c-3.2-1.6-5.7-3.9-7.4-6.7c-1.7-2.9-2.6-6.1-2.6-9.8c0-3.6,0.9-6.9,2.6-9.8   c1.7-2.9,4.1-5.2,7.1-6.8c3-1.6,6.3-2.4,10-2.4c3.6,0,6.9,0.8,9.8,2.3c2.9,1.6,5.2,3.8,6.9,6.7c1.7,2.9,2.5,6.3,2.5,10.1   C575.5,487.9,575.4,488.9,575.3,490.7z M550.3,478.8c-1.6,1.4-2.7,3.2-3,5.6h18.2c-0.4-2.3-1.4-4.2-3-5.6c-1.6-1.4-3.7-2.1-6-2.1   C553.9,476.8,551.9,477.4,550.3,478.8z"/>
	<path d="M613.4,478h-12.5v28.1h-10.6V478h-12.5v-8.8h35.6V478z"/>
	<path d="M619.1,469.2h10.6v14.4h16v-14.4h10.7v36.9h-10.7v-13.8h-16v13.8h-10.6V469.2z"/>
	<path d="M673.4,504.2c-3.1-1.6-5.5-3.9-7.2-6.7c-1.7-2.9-2.6-6.1-2.6-9.8c0-3.7,0.9-6.9,2.6-9.8c1.7-2.9,4.1-5.1,7.2-6.7   c3.1-1.6,6.6-2.4,10.4-2.4s7.4,0.8,10.4,2.4c3.1,1.6,5.5,3.9,7.2,6.7c1.7,2.9,2.6,6.1,2.6,9.8c0,3.7-0.9,6.9-2.6,9.8   c-1.7,2.9-4.1,5.1-7.2,6.7c-3.1,1.6-6.5,2.4-10.4,2.4S676.5,505.8,673.4,504.2z M690.6,495.1c1.8-1.9,2.6-4.3,2.6-7.4   c0-3.1-0.9-5.6-2.6-7.4c-1.8-1.9-4-2.8-6.7-2.8c-2.7,0-5,0.9-6.8,2.8c-1.8,1.8-2.7,4.3-2.7,7.4c0,3.1,0.9,5.6,2.7,7.4   c1.8,1.8,4,2.8,6.8,2.8C686.6,497.9,688.9,496.9,690.6,495.1z"/>
	<path d="M718.4,504.2c-3.1-1.6-5.6-3.9-7.3-6.7c-1.8-2.9-2.6-6.1-2.6-9.8c0-3.7,0.9-6.9,2.6-9.8c1.8-2.9,4.2-5.1,7.3-6.7   c3.1-1.6,6.7-2.4,10.6-2.4c3.9,0,7.3,0.8,10.2,2.4c2.9,1.6,5,3.9,6.3,7l-8.3,4.5c-1.9-3.4-4.7-5.1-8.3-5.1c-2.8,0-5.1,0.9-6.9,2.7   c-1.8,1.8-2.7,4.3-2.7,7.5s0.9,5.6,2.7,7.5c1.8,1.8,4.1,2.7,6.9,2.7c3.7,0,6.4-1.7,8.3-5.1l8.3,4.5c-1.3,2.9-3.4,5.2-6.3,6.9   c-2.9,1.6-6.3,2.5-10.2,2.5C725,506.6,721.5,505.8,718.4,504.2z"/>
	<path d="M782.8,478h-12.5v28.1h-10.6V478h-12.5v-8.8h35.6V478z"/>
	<path d="M788.5,469.2h10.6v21.9l17.9-21.9h9.8v36.9h-10.6v-21.9l-17.9,21.9h-9.9V469.2z"/>
</g>
<g>
	<polygon class="st0" points="397.7,390.6 290.4,476.4 256.2,503.6 256.2,447.6 327.6,390.6  "/>
	<polygon class="st0" points="398.6,552.4 328.4,552.4 304.2,533 304.2,477  "/>
</g>
<g>
	<path d="M425.2,523c0.8,0.4,1.4,1,1.8,1.8c0.4,0.8,0.7,1.7,0.7,2.7s-0.2,1.9-0.7,2.7c-0.4,0.8-1,1.4-1.8,1.8   c-0.8,0.4-1.6,0.7-2.6,0.7c-0.9,0-1.6-0.2-2.3-0.5c-0.7-0.4-1.2-0.9-1.6-1.6v2h-1.3v-14.4h1.4v6.1c0.4-0.7,1-1.2,1.6-1.5   c0.7-0.3,1.4-0.5,2.2-0.5C423.6,522.4,424.5,522.6,425.2,523z M424.5,531.1c0.6-0.3,1-0.8,1.4-1.4c0.3-0.6,0.5-1.3,0.5-2.1   s-0.2-1.5-0.5-2.1c-0.3-0.6-0.8-1.1-1.4-1.4c-0.6-0.3-1.2-0.5-1.9-0.5c-0.7,0-1.4,0.2-2,0.5c-0.6,0.3-1,0.8-1.4,1.4   c-0.3,0.6-0.5,1.3-0.5,2.1s0.2,1.5,0.5,2.1c0.3,0.6,0.8,1.1,1.4,1.4c0.6,0.3,1.2,0.5,2,0.5C423.2,531.6,423.9,531.4,424.5,531.1z"/>
	<path d="M438.8,522.5l-5.1,11.4c-0.4,1-0.9,1.6-1.4,2c-0.5,0.4-1.2,0.6-2,0.6c-0.5,0-1-0.1-1.4-0.2c-0.4-0.2-0.8-0.4-1.1-0.7l0.6-1   c0.5,0.5,1.1,0.8,1.9,0.8c0.5,0,0.9-0.1,1.2-0.4c0.3-0.3,0.6-0.7,0.9-1.3l0.4-1l-4.6-10.2h1.4l3.8,8.7l3.8-8.7H438.8z"/>
	<path d="M446.2,532.4c-0.8-0.2-1.4-0.5-1.8-0.9l0.6-1.1c0.4,0.3,1,0.6,1.6,0.8c0.6,0.2,1.3,0.3,2,0.3c0.9,0,1.6-0.1,2.1-0.4   c0.4-0.3,0.7-0.7,0.7-1.2c0-0.4-0.1-0.7-0.4-0.9c-0.2-0.2-0.6-0.4-0.9-0.5c-0.4-0.1-0.9-0.2-1.5-0.3c-0.8-0.2-1.5-0.3-2-0.5   c-0.5-0.2-0.9-0.4-1.3-0.8c-0.4-0.4-0.5-0.9-0.5-1.6c0-0.9,0.4-1.6,1.1-2.1c0.7-0.5,1.7-0.8,3-0.8c0.7,0,1.3,0.1,2,0.3   c0.7,0.2,1.2,0.4,1.6,0.7l-0.6,1.1c-0.8-0.6-1.8-0.9-3-0.9c-0.9,0-1.5,0.2-2,0.5c-0.4,0.3-0.7,0.7-0.7,1.2c0,0.4,0.1,0.7,0.4,0.9   c0.3,0.2,0.6,0.4,0.9,0.5c0.4,0.1,0.9,0.2,1.6,0.3c0.8,0.2,1.5,0.3,2,0.5s0.9,0.4,1.3,0.8c0.3,0.4,0.5,0.9,0.5,1.6   c0,0.9-0.4,1.6-1.1,2.1c-0.7,0.5-1.8,0.8-3.1,0.8C447.8,532.8,447,532.7,446.2,532.4z"/>
	<path d="M471.1,523.5c0.7,0.7,1.1,1.8,1.1,3.3v5.9h-1.4v-5.8c0-1.1-0.3-1.9-0.8-2.4c-0.5-0.6-1.2-0.8-2.2-0.8c-1.1,0-1.9,0.3-2.5,1   c-0.6,0.7-0.9,1.6-0.9,2.7v5.4h-1.4v-5.8c0-1.1-0.3-1.9-0.8-2.4c-0.5-0.6-1.2-0.8-2.2-0.8c-1,0-1.9,0.3-2.5,1   c-0.6,0.7-0.9,1.6-0.9,2.7v5.4h-1.4v-10.2h1.3v1.9c0.4-0.6,0.9-1.1,1.5-1.4c0.6-0.3,1.4-0.5,2.2-0.5c0.9,0,1.6,0.2,2.2,0.5   c0.6,0.4,1.1,0.9,1.4,1.6c0.4-0.7,0.9-1.2,1.6-1.6c0.7-0.4,1.5-0.6,2.4-0.6C469.4,522.4,470.4,522.7,471.1,523.5z"/>
	<path d="M482.6,523.4c0.7,0.7,1.1,1.7,1.1,3v6.3h-1.3v-1.6c-0.3,0.5-0.8,0.9-1.4,1.2c-0.6,0.3-1.3,0.4-2.1,0.4   c-1.1,0-2-0.3-2.7-0.8c-0.7-0.5-1-1.3-1-2.2c0-0.9,0.3-1.6,0.9-2.1c0.6-0.5,1.6-0.8,3-0.8h3.2v-0.6c0-0.9-0.2-1.6-0.7-2   c-0.5-0.5-1.2-0.7-2.2-0.7c-0.6,0-1.3,0.1-1.9,0.3c-0.6,0.2-1.1,0.5-1.5,0.9l-0.6-1c0.5-0.4,1.1-0.8,1.9-1c0.7-0.2,1.5-0.4,2.3-0.4   C480.9,522.4,481.9,522.7,482.6,523.4z M481.1,531.2c0.6-0.4,1-0.9,1.2-1.5v-1.7h-3.2c-1.7,0-2.6,0.6-2.6,1.8   c0,0.6,0.2,1.1,0.7,1.4c0.5,0.3,1.1,0.5,1.9,0.5C479.9,531.7,480.5,531.5,481.1,531.2z"/>
	<path d="M490.2,522.9c0.6-0.3,1.4-0.5,2.4-0.5v1.3l-0.3,0c-1.1,0-1.9,0.3-2.5,1c-0.6,0.7-0.9,1.6-0.9,2.8v5.2h-1.4v-10.2h1.3v2   C489.1,523.8,489.6,523.3,490.2,522.9z"/>
	<path d="M500.9,532.1c-0.3,0.2-0.6,0.4-1,0.5c-0.4,0.1-0.8,0.2-1.2,0.2c-1,0-1.7-0.3-2.2-0.8c-0.5-0.5-0.8-1.3-0.8-2.2v-6.2h-1.8   v-1.2h1.8v-2.2h1.4v2.2h3.1v1.2h-3.1v6.1c0,0.6,0.2,1.1,0.5,1.4c0.3,0.3,0.7,0.5,1.3,0.5c0.3,0,0.6,0,0.8-0.1   c0.3-0.1,0.5-0.2,0.7-0.4L500.9,532.1z"/>
	<path d="M517.8,518.3v14.4h-1.3v-2c-0.4,0.7-1,1.2-1.6,1.6c-0.7,0.4-1.4,0.5-2.3,0.5c-1,0-1.8-0.2-2.6-0.7   c-0.8-0.4-1.4-1.1-1.8-1.8c-0.4-0.8-0.7-1.7-0.7-2.7s0.2-1.9,0.7-2.7c0.4-0.8,1-1.4,1.8-1.8c0.8-0.4,1.6-0.7,2.6-0.7   c0.8,0,1.6,0.2,2.2,0.5c0.7,0.3,1.2,0.8,1.6,1.5v-6.1H517.8z M514.6,531.1c0.6-0.3,1-0.8,1.4-1.4c0.3-0.6,0.5-1.3,0.5-2.1   s-0.2-1.5-0.5-2.1c-0.3-0.6-0.8-1.1-1.4-1.4c-0.6-0.3-1.2-0.5-1.9-0.5c-0.7,0-1.4,0.2-2,0.5c-0.6,0.3-1,0.8-1.4,1.4   c-0.3,0.6-0.5,1.3-0.5,2.1s0.2,1.5,0.5,2.1c0.3,0.6,0.8,1.1,1.4,1.4c0.6,0.3,1.2,0.5,2,0.5C513.4,531.6,514.1,531.4,514.6,531.1z"/>
	<path d="M528.3,523.4c0.7,0.7,1.1,1.7,1.1,3v6.3h-1.3v-1.6c-0.3,0.5-0.8,0.9-1.4,1.2c-0.6,0.3-1.3,0.4-2.1,0.4   c-1.1,0-2-0.3-2.7-0.8c-0.7-0.5-1-1.3-1-2.2c0-0.9,0.3-1.6,0.9-2.1c0.6-0.5,1.6-0.8,3-0.8h3.2v-0.6c0-0.9-0.2-1.6-0.7-2   c-0.5-0.5-1.2-0.7-2.2-0.7c-0.6,0-1.3,0.1-1.9,0.3c-0.6,0.2-1.1,0.5-1.5,0.9l-0.6-1c0.5-0.4,1.1-0.8,1.9-1c0.7-0.2,1.5-0.4,2.3-0.4   C526.6,522.4,527.6,522.7,528.3,523.4z M526.8,531.2c0.6-0.4,1-0.9,1.2-1.5v-1.7h-3.2c-1.7,0-2.6,0.6-2.6,1.8   c0,0.6,0.2,1.1,0.7,1.4c0.5,0.3,1.1,0.5,1.9,0.5C525.6,531.7,526.2,531.5,526.8,531.2z"/>
	<path d="M538.5,532.1c-0.3,0.2-0.6,0.4-1,0.5c-0.4,0.1-0.8,0.2-1.2,0.2c-1,0-1.7-0.3-2.2-0.8c-0.5-0.5-0.8-1.3-0.8-2.2v-6.2h-1.8   v-1.2h1.8v-2.2h1.4v2.2h3.1v1.2h-3.1v6.1c0,0.6,0.2,1.1,0.5,1.4c0.3,0.3,0.7,0.5,1.3,0.5c0.3,0,0.6,0,0.8-0.1   c0.3-0.1,0.5-0.2,0.7-0.4L538.5,532.1z"/>
	<path d="M547.7,523.4c0.7,0.7,1.1,1.7,1.1,3v6.3h-1.3v-1.6c-0.3,0.5-0.8,0.9-1.4,1.2c-0.6,0.3-1.3,0.4-2.1,0.4   c-1.1,0-2-0.3-2.7-0.8c-0.7-0.5-1-1.3-1-2.2c0-0.9,0.3-1.6,0.9-2.1c0.6-0.5,1.6-0.8,3-0.8h3.2v-0.6c0-0.9-0.2-1.6-0.7-2   c-0.5-0.5-1.2-0.7-2.2-0.7c-0.6,0-1.3,0.1-1.9,0.3c-0.6,0.2-1.1,0.5-1.5,0.9l-0.6-1c0.5-0.4,1.1-0.8,1.9-1c0.7-0.2,1.5-0.4,2.3-0.4   C546,522.4,547,522.7,547.7,523.4z M546.1,531.2c0.6-0.4,1-0.9,1.2-1.5v-1.7h-3.2c-1.7,0-2.6,0.6-2.6,1.8c0,0.6,0.2,1.1,0.7,1.4   c0.5,0.3,1.1,0.5,1.9,0.5C544.9,531.7,545.6,531.5,546.1,531.2z"/>
	<path d="M566.8,522.5v10.2h-1.3v-1.9c-0.4,0.6-0.9,1.1-1.5,1.4c-0.6,0.3-1.4,0.5-2.2,0.5c-1.3,0-2.4-0.4-3.2-1.1   c-0.8-0.7-1.2-1.8-1.2-3.3v-5.9h1.4v5.8c0,1.1,0.3,1.9,0.8,2.4c0.5,0.6,1.3,0.8,2.3,0.8c1.1,0,1.9-0.3,2.5-1   c0.6-0.7,0.9-1.6,0.9-2.7v-5.4H566.8z"/>
	<path d="M574.5,527.5l-2.4,2.2v2.9h-1.4v-14.4h1.4v9.8l6.1-5.6h1.7l-4.4,4.2l4.8,6h-1.7L574.5,527.5z"/>
	<path d="M582.2,519.9c-0.2-0.2-0.3-0.4-0.3-0.7c0-0.3,0.1-0.5,0.3-0.7c0.2-0.2,0.4-0.3,0.7-0.3s0.5,0.1,0.7,0.3   c0.2,0.2,0.3,0.4,0.3,0.7c0,0.3-0.1,0.5-0.3,0.7c-0.2,0.2-0.4,0.3-0.7,0.3S582.4,520.1,582.2,519.9z M582.2,522.5h1.4v10.2h-1.4   V522.5z"/>
	<path d="M603.2,523.5c0.7,0.7,1.1,1.8,1.1,3.3v5.9h-1.4v-5.8c0-1.1-0.3-1.9-0.8-2.4c-0.5-0.6-1.2-0.8-2.2-0.8c-1.1,0-1.9,0.3-2.5,1   c-0.6,0.7-0.9,1.6-0.9,2.7v5.4h-1.4v-5.8c0-1.1-0.3-1.9-0.8-2.4c-0.5-0.6-1.2-0.8-2.2-0.8c-1,0-1.9,0.3-2.5,1   c-0.6,0.7-0.9,1.6-0.9,2.7v5.4h-1.4v-10.2h1.3v1.9c0.4-0.6,0.9-1.1,1.5-1.4c0.6-0.3,1.4-0.5,2.2-0.5c0.9,0,1.6,0.2,2.2,0.5   c0.6,0.4,1.1,0.9,1.4,1.6c0.4-0.7,0.9-1.2,1.6-1.6c0.7-0.4,1.5-0.6,2.4-0.6C601.5,522.4,602.5,522.7,603.2,523.5z"/>
	<path d="M617,528h-8.6c0.1,1.1,0.5,1.9,1.2,2.6c0.7,0.7,1.7,1,2.8,1c0.6,0,1.2-0.1,1.7-0.3c0.5-0.2,1-0.6,1.4-1l0.8,0.9   c-0.5,0.5-1,1-1.7,1.2c-0.7,0.3-1.4,0.4-2.2,0.4c-1,0-2-0.2-2.8-0.7c-0.8-0.4-1.4-1.1-1.9-1.9c-0.5-0.8-0.7-1.7-0.7-2.7   s0.2-1.9,0.7-2.7c0.4-0.8,1-1.4,1.8-1.8c0.8-0.4,1.6-0.7,2.6-0.7c0.9,0,1.8,0.2,2.5,0.7c0.8,0.4,1.3,1.1,1.8,1.8   c0.4,0.8,0.6,1.7,0.6,2.7L617,528z M609.6,524.5c-0.7,0.6-1,1.4-1.1,2.5h7.2c-0.1-1-0.5-1.8-1.1-2.5c-0.7-0.6-1.5-0.9-2.5-0.9   C611.1,523.6,610.2,523.9,609.6,524.5z"/>
	<path d="M625.2,532.1c-0.3,0.2-0.6,0.4-1,0.5c-0.4,0.1-0.8,0.2-1.2,0.2c-1,0-1.7-0.3-2.2-0.8c-0.5-0.5-0.8-1.3-0.8-2.2v-6.2h-1.8   v-1.2h1.8v-2.2h1.4v2.2h3.1v1.2h-3.1v6.1c0,0.6,0.2,1.1,0.5,1.4c0.3,0.3,0.7,0.5,1.3,0.5c0.3,0,0.6,0,0.8-0.1   c0.3-0.1,0.5-0.2,0.7-0.4L625.2,532.1z"/>
</g>
</svg>