<?xml version="1.0" encoding="utf-8"?>
<!-- Generator: Adobe Illustrator 25.2.1, SVG Export Plug-In . SVG Version: 6.00 Build 0)  -->
<svg version="1.1" id="Слой_1" xmlns="http://www.w3.org/2000/svg" xmlns:xlink="http://www.w3.org/1999/xlink" x="0px" y="0px"
	 viewBox="0 0 1000 1000" style="enable-background:new 0 0 1000 1000;" xml:space="preserve">
<style type="text/css">
	.st0{fill:#FFFFFF;}
</style>
<g>
	<polygon class="st0" points="388,457.8 401.4,468.4 401.4,507.8 341.8,543.4 281.5,506.4 323.6,482.5 342,494.5 352,488.6 
		352,482.7 330.9,466.3 330.9,466.3 315,453.9 315,435 328.1,427.1 342.3,418.4 367.2,433.6 379.4,426.5 343,405.1 300.1,431.4 
		300.1,459.5 309.1,466.4 297.1,473.3 283.6,462.7 283.6,424.6 300.1,414.5 329,396.8 342.5,388.6 356.5,396.9 393.3,418.6 
		404.6,425.3 390.5,433.1 377.9,440.1 362.1,449 343.4,437 333,443.7 333,449 345,458.5 370.3,478.5 370.3,496.6 342.4,513.6 
		316.4,497.9 304.6,504.8 342.8,527.9 385.8,501.4 385.8,473.4 375.2,465.2 	"/>
	<circle class="st0" cx="300.9" cy="469.1" r="10.8"/>
	<circle class="st0" cx="383.3" cy="461.4" r="10.8"/>
</g>
<g>
	<path class="st0" d="M436.2,458c-2-0.6-3.6-1.3-4.8-2.3l2.1-4.7c1.2,0.9,2.5,1.5,4.1,2.1s3.2,0.8,4.8,0.8c1.8,0,3.1-0.3,4-0.8
		c0.9-0.5,1.3-1.2,1.3-2.1c0-0.6-0.3-1.2-0.8-1.6c-0.5-0.4-1.2-0.8-1.9-1c-0.8-0.3-1.9-0.5-3.2-0.9c-2.1-0.5-3.8-1-5.1-1.5
		c-1.3-0.5-2.4-1.3-3.4-2.4c-0.9-1.1-1.4-2.5-1.4-4.3c0-1.6,0.4-3,1.3-4.3c0.9-1.3,2.1-2.3,3.9-3c1.7-0.7,3.8-1.1,6.3-1.1
		c1.7,0,3.4,0.2,5.1,0.6c1.7,0.4,3.1,1,4.3,1.8l-1.9,4.8c-2.5-1.4-5-2.1-7.5-2.1c-1.8,0-3.1,0.3-3.9,0.9c-0.8,0.6-1.3,1.3-1.3,2.2
		c0,0.9,0.5,1.6,1.5,2.1c1,0.5,2.4,0.9,4.4,1.3c2.1,0.5,3.8,1,5.1,1.5c1.3,0.5,2.4,1.3,3.4,2.3c0.9,1.1,1.4,2.5,1.4,4.3
		c0,1.6-0.4,3-1.3,4.2c-0.9,1.3-2.2,2.3-3.9,3c-1.7,0.7-3.8,1.1-6.3,1.1C440.3,458.9,438.2,458.6,436.2,458z"/>
	<path class="st0" d="M490.8,439.6c1.5,1.5,2.3,3.8,2.3,6.9v11.9h-6v-11c0-1.7-0.3-2.9-1-3.7c-0.7-0.8-1.7-1.2-2.9-1.2
		c-1.4,0-2.5,0.5-3.4,1.4c-0.8,0.9-1.2,2.3-1.2,4.1v10.5h-6.1v-11c0-3.3-1.3-4.9-4-4.9c-1.4,0-2.5,0.5-3.3,1.4
		c-0.8,0.9-1.2,2.3-1.2,4.1v10.5h-6.1v-20.9h5.8v2.4c0.8-0.9,1.7-1.6,2.9-2c1.1-0.5,2.4-0.7,3.7-0.7c1.5,0,2.8,0.3,4,0.9
		c1.2,0.6,2.1,1.4,2.9,2.5c0.9-1.1,1.9-1.9,3.2-2.5c1.3-0.6,2.7-0.9,4.3-0.9C487.2,437.3,489.3,438,490.8,439.6z"/>
	<path class="st0" d="M514.4,439.6c1.7,1.5,2.6,3.9,2.6,7v11.9h-5.7v-2.6c-1.1,1.9-3.3,2.9-6.4,2.9c-1.6,0-3-0.3-4.2-0.8
		c-1.2-0.5-2.1-1.3-2.7-2.2c-0.6-1-0.9-2-0.9-3.3c0-1.9,0.7-3.5,2.2-4.6c1.5-1.1,3.7-1.7,6.8-1.7h4.8c0-1.3-0.4-2.3-1.2-3
		c-0.8-0.7-2-1.1-3.6-1.1c-1.1,0-2.2,0.2-3.3,0.5c-1.1,0.3-2,0.8-2.7,1.4l-2.2-4.2c1.1-0.8,2.5-1.4,4.1-1.9c1.6-0.4,3.2-0.7,4.9-0.7
		C510.2,437.3,512.7,438,514.4,439.6z M509.3,453.9c0.8-0.5,1.4-1.2,1.7-2.1v-2.1h-4.1c-2.5,0-3.7,0.8-3.7,2.4
		c0,0.8,0.3,1.4,0.9,1.8c0.6,0.5,1.4,0.7,2.5,0.7C507.5,454.7,508.4,454.4,509.3,453.9z"/>
	<path class="st0" d="M531.2,438c1.2-0.5,2.6-0.8,4.2-0.8v5.6c-0.7-0.1-1.1-0.1-1.4-0.1c-1.7,0-3.1,0.5-4.1,1.5
		c-1,1-1.5,2.4-1.5,4.4v9.9h-6v-20.9h5.8v2.8C529,439.3,530,438.5,531.2,438z"/>
	<path class="st0" d="M553.2,457.4c-0.6,0.4-1.3,0.8-2.2,1c-0.9,0.2-1.8,0.3-2.7,0.3c-2.5,0-4.4-0.6-5.8-1.9c-1.4-1.3-2-3.1-2-5.6
		v-8.6h-3.2V438h3.2v-5.1h6v5.1h5.2v4.7h-5.2v8.5c0,0.9,0.2,1.6,0.7,2c0.5,0.5,1.1,0.7,1.9,0.7c1,0,1.8-0.3,2.4-0.8L553.2,457.4z"/>
	<path class="st0" d="M568,431.3h12.3c2.9,0,5.6,0.6,7.8,1.7c2.3,1.1,4,2.7,5.3,4.8c1.3,2,1.9,4.4,1.9,7.1c0,2.7-0.6,5.1-1.9,7.1
		c-1.3,2-3,3.6-5.3,4.8s-4.9,1.7-7.8,1.7H568V431.3z M580.1,453.3c2.7,0,4.9-0.8,6.5-2.3c1.6-1.5,2.4-3.6,2.4-6.1
		c0-2.6-0.8-4.6-2.4-6.1c-1.6-1.5-3.8-2.3-6.5-2.3h-5.7v16.8H580.1z"/>
	<path class="st0" d="M615.5,439.6c1.7,1.5,2.6,3.9,2.6,7v11.9h-5.7v-2.6c-1.1,1.9-3.3,2.9-6.4,2.9c-1.6,0-3-0.3-4.2-0.8
		c-1.2-0.5-2.1-1.3-2.7-2.2c-0.6-1-0.9-2-0.9-3.3c0-1.9,0.7-3.5,2.2-4.6c1.5-1.1,3.7-1.7,6.8-1.7h4.8c0-1.3-0.4-2.3-1.2-3
		c-0.8-0.7-2-1.1-3.6-1.1c-1.1,0-2.2,0.2-3.3,0.5c-1.1,0.3-2,0.8-2.7,1.4l-2.2-4.2c1.1-0.8,2.5-1.4,4.1-1.9c1.6-0.4,3.2-0.7,4.9-0.7
		C611.3,437.3,613.8,438,615.5,439.6z M610.4,453.9c0.8-0.5,1.4-1.2,1.7-2.1v-2.1h-4.1c-2.5,0-3.7,0.8-3.7,2.4
		c0,0.8,0.3,1.4,0.9,1.8c0.6,0.5,1.4,0.7,2.5,0.7C608.6,454.7,609.5,454.4,610.4,453.9z"/>
	<path class="st0" d="M637,457.4c-0.6,0.4-1.3,0.8-2.2,1c-0.9,0.2-1.8,0.3-2.7,0.3c-2.5,0-4.4-0.6-5.8-1.9c-1.4-1.3-2-3.1-2-5.6
		v-8.6h-3.2V438h3.2v-5.1h6v5.1h5.2v4.7h-5.2v8.5c0,0.9,0.2,1.6,0.7,2c0.5,0.5,1.1,0.7,1.9,0.7c1,0,1.8-0.3,2.4-0.8L637,457.4z"/>
	<path class="st0" d="M656.3,439.6c1.7,1.5,2.6,3.9,2.6,7v11.9h-5.7v-2.6c-1.1,1.9-3.3,2.9-6.4,2.9c-1.6,0-3-0.3-4.2-0.8
		c-1.2-0.5-2.1-1.3-2.7-2.2c-0.6-1-0.9-2-0.9-3.3c0-1.9,0.7-3.5,2.2-4.6c1.5-1.1,3.7-1.7,6.8-1.7h4.8c0-1.3-0.4-2.3-1.2-3
		c-0.8-0.7-2-1.1-3.6-1.1c-1.1,0-2.2,0.2-3.3,0.5c-1.1,0.3-2,0.8-2.7,1.4l-2.2-4.2c1.1-0.8,2.5-1.4,4.1-1.9c1.6-0.4,3.2-0.7,4.9-0.7
		C652.1,437.3,654.6,438,656.3,439.6z M651.1,453.9c0.8-0.5,1.4-1.2,1.7-2.1v-2.1h-4.1c-2.5,0-3.7,0.8-3.7,2.4
		c0,0.8,0.3,1.4,0.9,1.8c0.6,0.5,1.4,0.7,2.5,0.7C649.4,454.7,650.3,454.4,651.1,453.9z"/>
	<path class="st0" d="M437.5,502.2c-2-2-2.9-5-2.9-8.8v-15.6h2.9v15.4c0,3.2,0.7,5.5,2.1,7.1s3.5,2.3,6.2,2.3c2.7,0,4.8-0.8,6.2-2.3
		s2.1-3.9,2.1-7.1v-15.4h2.8v15.6c0,3.9-1,6.8-2.9,8.8c-2,2-4.7,3-8.2,3C442.2,505.2,439.4,504.2,437.5,502.2z"/>
	<path class="st0" d="M472.4,494.7l-4.8,4.4v5.8h-2.8v-28.8h2.8v19.5l12.2-11.1h3.4l-8.7,8.3L484,505h-3.4L472.4,494.7z"/>
	<path class="st0" d="M487.8,479.5c-0.4-0.4-0.6-0.9-0.6-1.4c0-0.5,0.2-1,0.6-1.4s0.9-0.6,1.4-0.6c0.6,0,1,0.2,1.4,0.6
		c0.4,0.4,0.6,0.8,0.6,1.3c0,0.6-0.2,1-0.6,1.4c-0.4,0.4-0.9,0.6-1.4,0.6C488.7,480.1,488.2,479.9,487.8,479.5z M487.9,484.6h2.8
		V505h-2.8V484.6z"/>
	<path class="st0" d="M529.8,486.6c1.5,1.5,2.2,3.6,2.2,6.5V505h-2.8v-11.6c0-2.1-0.5-3.7-1.5-4.8c-1-1.1-2.5-1.7-4.3-1.7
		c-2.1,0-3.8,0.7-5,2c-1.2,1.3-1.8,3.1-1.8,5.4V505h-2.8v-11.6c0-2.1-0.5-3.7-1.5-4.8c-1-1.1-2.5-1.7-4.4-1.7c-2.1,0-3.8,0.7-5,2
		s-1.8,3.1-1.8,5.4V505h-2.8v-20.4h2.6v3.7c0.7-1.2,1.7-2.2,3-2.9s2.8-1,4.5-1c1.7,0,3.2,0.4,4.4,1.1c1.3,0.7,2.2,1.8,2.8,3.2
		c0.8-1.3,1.8-2.4,3.2-3.2s3-1.1,4.8-1.1C526.3,484.4,528.3,485.1,529.8,486.6z"/>
	<path class="st0" d="M557.3,495.6h-17.1c0.2,2.1,1,3.8,2.4,5.1c1.5,1.3,3.3,2,5.6,2c1.3,0,2.4-0.2,3.5-0.7c1.1-0.5,2-1.1,2.8-2
		l1.6,1.8c-0.9,1.1-2,1.9-3.4,2.5c-1.4,0.6-2.9,0.9-4.5,0.9c-2.1,0-3.9-0.4-5.6-1.3c-1.6-0.9-2.9-2.1-3.8-3.7
		c-0.9-1.6-1.4-3.4-1.4-5.4c0-2,0.4-3.8,1.3-5.4c0.9-1.6,2.1-2.8,3.6-3.7c1.5-0.9,3.2-1.3,5.1-1.3c1.9,0,3.6,0.4,5.1,1.3
		c1.5,0.9,2.7,2.1,3.5,3.7c0.9,1.6,1.3,3.4,1.3,5.4L557.3,495.6z M542.5,488.7c-1.3,1.3-2.1,2.9-2.3,4.9h14.5
		c-0.2-2-0.9-3.7-2.3-4.9c-1.3-1.3-3-1.9-5-1.9C545.5,486.8,543.8,487.4,542.5,488.7z"/>
	<path class="st0" d="M573.7,503.7c-0.5,0.5-1.2,0.8-1.9,1.1c-0.8,0.2-1.6,0.4-2.4,0.4c-1.9,0-3.4-0.5-4.4-1.6c-1-1-1.6-2.5-1.6-4.4
		v-12.3h-3.6v-2.3h3.6v-4.5h2.8v4.5h6.2v2.3h-6.2v12.2c0,1.2,0.3,2.1,0.9,2.8c0.6,0.6,1.5,1,2.6,1c0.6,0,1.1-0.1,1.6-0.3
		c0.5-0.2,1-0.4,1.4-0.8L573.7,503.7z"/>
</g>
</svg>
